<?xml version="1.0" standalone="no"?>
<!DOCTYPE svg PUBLIC "-//W3C//DTD SVG 20010904//EN"
 "http://www.w3.org/TR/2001/REC-SVG-20010904/DTD/svg10.dtd">
<svg version="1.0" xmlns="http://www.w3.org/2000/svg"
 width="724.000000pt" height="724.000000pt" viewBox="0 0 724.000000 724.000000"
 preserveAspectRatio="xMidYMid meet">
<metadata>
Created by potrace 1.14, written by Peter Selinger 2001-2017
</metadata>
<g transform="translate(0.000000,724.000000) scale(0.100000,-0.100000)"
fill="#000000" stroke="none">
<path d="M895 6929 c12 -13 48 -53 80 -89 361 -396 686 -888 879 -1335 48
-110 166 -426 166 -444 0 -13 45 -18 290 -37 113 -8 295 -21 405 -30 270 -20
417 -33 422 -37 2 -2 -59 -7 -134 -10 -486 -21 -925 -46 -930 -51 -3 -2 7 -55
21 -118 66 -295 97 -580 96 -883 -1 -110 -1 -206 0 -212 0 -9 21 -13 73 -13
39 0 167 -7 282 -15 116 -8 305 -19 420 -25 116 -6 230 -13 255 -15 25 -3 171
-12 326 -20 311 -18 412 -33 224 -34 -63 -1 -275 -8 -470 -16 -195 -8 -492
-19 -660 -25 -168 -5 -342 -13 -387 -16 l-82 -7 -6 -46 c-97 -739 -350 -1421
-751 -2028 -52 -78 -94 -145 -94 -148 0 -10 153 -5 319 10 378 36 722 108
1086 230 249 83 408 146 890 357 512 224 668 283 882 334 428 101 809 61 1207
-125 98 -47 313 -167 321 -182 4 -5 13 -9 22 -9 14 0 15 25 10 227 -22 906
-345 1822 -905 2566 -811 1077 -2093 1810 -3812 2181 -131 28 -353 71 -420 82
l-45 6 20 -23z"/>
<path d="M4720 2008 c-134 -10 -335 -49 -480 -93 -25 -7 -79 -23 -120 -35
-145 -42 -368 -123 -575 -210 -55 -23 -115 -47 -132 -53 -18 -6 -33 -14 -33
-17 0 -4 -14 -10 -31 -14 -17 -3 -45 -12 -62 -20 -56 -25 -289 -122 -387 -160
-52 -21 -104 -42 -115 -47 -43 -19 -305 -112 -380 -135 -44 -13 -109 -33 -145
-44 -36 -11 -73 -20 -82 -20 -9 0 -19 -4 -22 -9 -3 -5 -27 -12 -53 -15 -27 -4
-63 -12 -81 -17 -41 -13 -167 -36 -297 -54 -55 -8 -118 -17 -140 -20 -22 -3
-124 -8 -227 -12 -182 -6 -302 3 -523 38 -115 18 -347 69 -355 79 -3 3 -25 11
-50 17 l-45 11 56 -51 c190 -177 255 -230 271 -221 7 4 10 4 6 -1 -12 -13 11
-34 30 -28 13 4 14 3 4 -5 -10 -7 -1 -19 39 -48 29 -21 76 -56 103 -76 28 -21
65 -45 81 -54 17 -9 32 -20 35 -24 3 -4 24 -18 48 -30 23 -12 45 -26 48 -32 3
-5 16 -14 27 -19 12 -5 40 -20 62 -33 145 -86 329 -166 515 -224 112 -36 340
-69 488 -71 109 -2 331 15 377 29 17 5 64 14 105 21 41 6 80 15 85 19 6 4 33
11 60 15 28 4 55 10 60 15 6 4 34 13 63 20 28 6 54 16 57 20 3 5 23 11 45 15
22 4 42 11 46 16 3 5 13 9 22 9 9 1 35 9 57 20 22 11 44 19 50 20 8 0 123 47
222 91 23 11 44 19 47 19 2 0 39 16 83 36 127 58 134 61 238 104 55 23 123 52
150 65 28 12 104 44 170 70 66 26 129 51 140 55 11 5 47 18 80 30 33 12 74 28
90 35 17 7 46 16 65 20 19 4 40 11 45 15 6 4 35 13 65 20 30 7 60 16 65 20 6
5 28 11 50 15 22 4 60 13 85 20 57 17 177 42 255 55 33 5 71 11 83 14 116 25
461 37 692 24 178 -9 457 -53 579 -90 18 -6 58 -17 87 -24 161 -42 357 -106
383 -127 46 -36 -44 65 -165 186 -208 210 -364 343 -564 483 -106 74 -136 92
-195 123 -33 18 -67 36 -75 40 -44 26 -194 92 -250 111 -36 12 -74 26 -85 30
-60 25 -222 64 -340 81 -88 13 -379 17 -505 7z"/>
<path d="M5275 1035 c-179 -26 -320 -51 -345 -61 -8 -4 -42 -12 -75 -19 -33
-7 -82 -20 -110 -29 -27 -8 -79 -24 -115 -35 -161 -49 -439 -157 -605 -236
-168 -79 -165 -77 -158 -88 3 -6 1 -7 -5 -3 -10 6 -70 -19 -137 -56 -23 -13
-18 -10 -150 -77 -101 -52 -105 -58 -25 -40 25 5 83 16 130 23 47 8 108 19
135 26 28 6 93 20 145 31 115 25 182 40 320 75 58 15 130 32 160 39 30 7 129
32 220 55 184 46 259 65 340 84 30 7 62 15 70 18 18 8 162 35 279 54 47 7 91
16 99 19 7 3 66 12 130 20 64 8 133 18 152 22 61 14 727 9 805 -5 39 -7 108
-19 155 -27 47 -8 99 -17 115 -20 26 -6 25 -4 -10 13 -22 10 -58 25 -80 32
-22 7 -42 16 -45 19 -7 8 -95 40 -145 52 -22 6 -44 14 -50 20 -5 5 -18 9 -28
9 -10 0 -49 8 -85 19 -230 64 -367 82 -667 87 -224 3 -268 1 -420 -21z"/>
</g>
</svg>
